<?xml version="1.0" encoding="UTF-8"?>
<svg xmlns="http://www.w3.org/2000/svg" viewBox="0 0 900 360" font-family="-apple-system, BlinkMacSystemFont, 'Segoe UI', Roboto, sans-serif">
  <defs>
    <marker id="arrow" viewBox="0 0 10 10" refX="9" refY="5"
            markerWidth="8" markerHeight="8" orient="auto-start-reverse">
      <path d="M 0 0 L 10 5 L 0 10 z" fill="#444"/>
    </marker>
  </defs>

  <!-- staging -->
  <rect x="20" y="140" width="170" height="80" rx="8" fill="#eaeef4" stroke="#445"/>
  <text x="105" y="172" text-anchor="middle" font-size="14" font-weight="600">/staging/…/data/</text>
  <text x="105" y="192" text-anchor="middle" font-size="12" fill="#555">~200 daily CSVs, ~20 GB</text>

  <!-- N workers -->
  <g>
    <rect x="270" y="60"  width="200" height="56" rx="8" fill="#fff5e6" stroke="#cc7a00"/>
    <text x="370" y="94" text-anchor="middle" font-size="13">score_tweets.py (worker 1)</text>
    <rect x="270" y="140" width="200" height="56" rx="8" fill="#fff5e6" stroke="#cc7a00"/>
    <text x="370" y="174" text-anchor="middle" font-size="13">score_tweets.py (worker 2)</text>
    <text x="370" y="222" text-anchor="middle" font-size="13" fill="#666">… ~200 parallel jobs</text>
    <rect x="270" y="250" width="200" height="56" rx="8" fill="#fff5e6" stroke="#cc7a00"/>
    <text x="370" y="284" text-anchor="middle" font-size="13">score_tweets.py (worker N)</text>
  </g>
  <text x="370" y="44" text-anchor="middle" font-size="14" font-weight="600" fill="#333">stage 1 , HTCondor parallel</text>

  <!-- per-file outputs -->
  <rect x="520" y="140" width="150" height="80" rx="8" fill="#eaf5ea" stroke="#2a7a2a"/>
  <text x="595" y="172" text-anchor="middle" font-size="13" font-weight="600">per-day sums</text>
  <text x="595" y="192" text-anchor="middle" font-size="12" fill="#555">~10 KB per job</text>

  <!-- aggregate -->
  <rect x="710" y="140" width="170" height="80" rx="8" fill="#e9eef8" stroke="#244a99"/>
  <text x="795" y="168" text-anchor="middle" font-size="13" font-weight="600">aggregate + analyze</text>
  <text x="795" y="186" text-anchor="middle" font-size="12" fill="#555">change-points · OLS</text>
  <text x="795" y="204" text-anchor="middle" font-size="12" fill="#555">event study</text>
  <text x="795" y="44"  text-anchor="middle" font-size="14" font-weight="600" fill="#333">stage 2 , 1 job, DAGMan-linked</text>

  <!-- arrows staging -> workers -->
  <line x1="190" y1="180" x2="260" y2="88"  stroke="#444" stroke-width="1.5" marker-end="url(#arrow)"/>
  <line x1="190" y1="180" x2="260" y2="168" stroke="#444" stroke-width="1.5" marker-end="url(#arrow)"/>
  <line x1="190" y1="180" x2="260" y2="278" stroke="#444" stroke-width="1.5" marker-end="url(#arrow)"/>

  <!-- arrows workers -> per-file -->
  <line x1="470" y1="88"  x2="515" y2="168" stroke="#444" stroke-width="1.5" marker-end="url(#arrow)"/>
  <line x1="470" y1="168" x2="515" y2="178" stroke="#444" stroke-width="1.5" marker-end="url(#arrow)"/>
  <line x1="470" y1="278" x2="515" y2="190" stroke="#444" stroke-width="1.5" marker-end="url(#arrow)"/>

  <!-- arrow per-file -> aggregate -->
  <line x1="670" y1="180" x2="705" y2="180" stroke="#444" stroke-width="1.5" marker-end="url(#arrow)"/>

  <!-- footer -->
  <text x="450" y="340" text-anchor="middle" font-size="12" fill="#777">
    Sufficient statistics (sums, sums-of-squares) mean the aggregator never revisits raw tweets.
  </text>
</svg>
